<?xml version="1.0" encoding="UTF-8" standalone="no"?>
<!DOCTYPE svg PUBLIC "-//W3C//DTD SVG 1.1//EN"
 "http://www.w3.org/Graphics/SVG/1.1/DTD/svg11.dtd">
<!-- Generated by graphviz version 2.43.0 (0)
 -->
<!-- Title: sourcetree Pages: 1 -->
<svg width="382pt" height="116pt"
 viewBox="0.00 0.00 381.50 116.00" xmlns="http://www.w3.org/2000/svg" xmlns:xlink="http://www.w3.org/1999/xlink">
<g id="graph0" class="graph" transform="scale(1 1) rotate(0) translate(4 112)">
<title>sourcetree</title>
<polygon fill="white" stroke="transparent" points="-4,4 -4,-112 377.5,-112 377.5,4 -4,4"/>
<!-- MulleObjCUnicodeFoundation -->
<g id="node1" class="node">
<title>MulleObjCUnicodeFoundation</title>
<polygon fill="yellow" stroke="black" points="333,-108 102,-108 102,-72 333,-72 333,-108"/>
<text text-anchor="middle" x="217.5" y="-86.3" font-family="Times,serif" font-size="14.00">MulleObjCUnicodeFoundation</text>
</g>
<!-- MulleObjCStandardFoundation -->
<g id="node2" class="node">
<title>MulleObjCStandardFoundation</title>
<g id="a_node2"><a xlink:href="https://github.com/MulleFoundation/MulleObjCStandardFoundation" xlink:title="MulleObjCStandardFoundation">
<polygon fill="lightgrey" stroke="black" points="239,-36 0,-36 0,0 239,0 239,-36"/>
<text text-anchor="middle" x="119.5" y="-14.3" font-family="Times,serif" font-size="14.00">MulleObjCStandardFoundation</text>
</a>
</g>
</g>
<!-- MulleObjCUnicodeFoundation&#45;&gt;MulleObjCStandardFoundation -->
<g id="edge1" class="edge">
<title>MulleObjCUnicodeFoundation&#45;&gt;MulleObjCStandardFoundation</title>
<path fill="none" stroke="black" d="M193.53,-71.88C180.95,-62.89 165.37,-51.76 151.75,-42.03"/>
<polygon fill="black" stroke="black" points="153.74,-39.15 143.57,-36.19 149.67,-44.85 153.74,-39.15"/>
</g>
<!-- mulle&#45;unicode -->
<g id="node3" class="node">
<title>mulle&#45;unicode</title>
<g id="a_node3"><a xlink:href="https://github.com/mulle-c/mulle-unicode" xlink:title="mulle&#45;unicode">
<polygon fill="lightgrey" stroke="black" points="373.5,-36 257.5,-36 257.5,0 373.5,0 373.5,-36"/>
<text text-anchor="middle" x="315.5" y="-14.3" font-family="Times,serif" font-size="14.00">mulle&#45;unicode</text>
</a>
</g>
</g>
<!-- MulleObjCUnicodeFoundation&#45;&gt;mulle&#45;unicode -->
<g id="edge2" class="edge">
<title>MulleObjCUnicodeFoundation&#45;&gt;mulle&#45;unicode</title>
<path fill="none" stroke="black" d="M241.47,-71.88C254.05,-62.89 269.63,-51.76 283.25,-42.03"/>
<polygon fill="black" stroke="black" points="285.33,-44.85 291.43,-36.19 281.26,-39.15 285.33,-44.85"/>
</g>
</g>
</svg>
