<?xml version="1.0" encoding="UTF-8" standalone="no"?>
<!DOCTYPE svg PUBLIC "-//W3C//DTD SVG 1.1//EN"
 "http://www.w3.org/Graphics/SVG/1.1/DTD/svg11.dtd">
<!-- Generated by graphviz version 2.43.0 (0)
 -->
<!-- Title: sourcetree Pages: 1 -->
<svg width="708pt" height="260pt"
 viewBox="0.00 0.00 707.50 260.00" xmlns="http://www.w3.org/2000/svg" xmlns:xlink="http://www.w3.org/1999/xlink">
<g id="graph0" class="graph" transform="scale(1 1) rotate(0) translate(4 256)">
<title>sourcetree</title>
<polygon fill="white" stroke="transparent" points="-4,4 -4,-256 703.5,-256 703.5,4 -4,4"/>
<!-- MulleObjCUnicodeFoundation -->
<g id="node1" class="node">
<title>MulleObjCUnicodeFoundation</title>
<polygon fill="yellow" stroke="black" points="579,-252 348,-252 348,-216 579,-216 579,-252"/>
<text text-anchor="middle" x="463.5" y="-230.3" font-family="Times,serif" font-size="14.00">MulleObjCUnicodeFoundation</text>
</g>
<!-- MulleObjCStandardFoundation -->
<g id="node6" class="node">
<title>MulleObjCStandardFoundation</title>
<g id="a_node6"><a xlink:href="https://github.com/MulleFoundation/MulleObjCStandardFoundation" xlink:title="MulleObjCStandardFoundation">
<polygon fill="lightgrey" stroke="black" points="485,-180 246,-180 246,-144 485,-144 485,-180"/>
<text text-anchor="middle" x="365.5" y="-158.3" font-family="Times,serif" font-size="14.00">MulleObjCStandardFoundation</text>
</a>
</g>
</g>
<!-- MulleObjCUnicodeFoundation&#45;&gt;MulleObjCStandardFoundation -->
<g id="edge6" class="edge">
<title>MulleObjCUnicodeFoundation&#45;&gt;MulleObjCStandardFoundation</title>
<path fill="none" stroke="black" d="M439.53,-215.88C426.95,-206.89 411.37,-195.76 397.75,-186.03"/>
<polygon fill="black" stroke="black" points="399.74,-183.15 389.57,-180.19 395.67,-188.85 399.74,-183.15"/>
</g>
<!-- mulle&#45;unicode -->
<g id="node9" class="node">
<title>mulle&#45;unicode</title>
<g id="a_node9"><a xlink:href="https://github.com/mulle-c/mulle-unicode" xlink:title="mulle&#45;unicode">
<polygon fill="lightgrey" stroke="black" points="619.5,-180 503.5,-180 503.5,-144 619.5,-144 619.5,-180"/>
<text text-anchor="middle" x="561.5" y="-158.3" font-family="Times,serif" font-size="14.00">mulle&#45;unicode</text>
</a>
</g>
</g>
<!-- MulleObjCUnicodeFoundation&#45;&gt;mulle&#45;unicode -->
<g id="edge7" class="edge">
<title>MulleObjCUnicodeFoundation&#45;&gt;mulle&#45;unicode</title>
<path fill="none" stroke="black" d="M487.47,-215.88C500.05,-206.89 515.63,-195.76 529.25,-186.03"/>
<polygon fill="black" stroke="black" points="531.33,-188.85 537.43,-180.19 527.26,-183.15 531.33,-188.85"/>
</g>
<!-- mulle&#45;buffer -->
<g id="node2" class="node">
<title>mulle&#45;buffer</title>
<g id="a_node2"><a xlink:href="https://github.com/mulle-c/mulle-buffer" xlink:title="mulle&#45;buffer">
<polygon fill="lightgrey" stroke="black" points="589.5,-36 485.5,-36 485.5,0 589.5,0 589.5,-36"/>
<text text-anchor="middle" x="537.5" y="-14.3" font-family="Times,serif" font-size="14.00">mulle&#45;buffer</text>
</a>
</g>
</g>
<!-- mulle&#45;container -->
<g id="node3" class="node">
<title>mulle&#45;container</title>
<g id="a_node3"><a xlink:href="https://github.com/mulle-c/mulle-container" xlink:title="mulle&#45;container">
<polygon fill="lightgrey" stroke="black" points="185.5,-36 57.5,-36 57.5,0 185.5,0 185.5,-36"/>
<text text-anchor="middle" x="121.5" y="-14.3" font-family="Times,serif" font-size="14.00">mulle&#45;container</text>
</a>
</g>
</g>
<!-- MulleObjCContainerFoundation -->
<g id="node4" class="node">
<title>MulleObjCContainerFoundation</title>
<g id="a_node4"><a xlink:href="https://github.com/MulleFoundation/MulleObjCContainerFoundation" xlink:title="MulleObjCContainerFoundation">
<polygon fill="lightgrey" stroke="black" points="243,-108 0,-108 0,-72 243,-72 243,-108"/>
<text text-anchor="middle" x="121.5" y="-86.3" font-family="Times,serif" font-size="14.00">MulleObjCContainerFoundation</text>
</a>
</g>
</g>
<!-- MulleObjCContainerFoundation&#45;&gt;mulle&#45;container -->
<g id="edge1" class="edge">
<title>MulleObjCContainerFoundation&#45;&gt;mulle&#45;container</title>
<path fill="none" stroke="black" d="M121.5,-71.7C121.5,-63.98 121.5,-54.71 121.5,-46.11"/>
<polygon fill="black" stroke="black" points="125,-46.1 121.5,-36.1 118,-46.1 125,-46.1"/>
</g>
<!-- MulleObjC -->
<g id="node5" class="node">
<title>MulleObjC</title>
<g id="a_node5"><a xlink:href="https://github.com/mulle-objc/MulleObjC" xlink:title="MulleObjC">
<polygon fill="lightgrey" stroke="black" points="411.5,-36 319.5,-36 319.5,0 411.5,0 411.5,-36"/>
<text text-anchor="middle" x="365.5" y="-14.3" font-family="Times,serif" font-size="14.00">MulleObjC</text>
</a>
</g>
</g>
<!-- MulleObjCStandardFoundation&#45;&gt;MulleObjCContainerFoundation -->
<g id="edge2" class="edge">
<title>MulleObjCStandardFoundation&#45;&gt;MulleObjCContainerFoundation</title>
<path fill="none" stroke="black" d="M306.12,-143.97C271.44,-134.01 227.49,-121.41 191.17,-110.99"/>
<polygon fill="black" stroke="black" points="191.72,-107.5 181.14,-108.11 189.79,-114.23 191.72,-107.5"/>
</g>
<!-- MulleObjCTimeFoundation -->
<g id="node7" class="node">
<title>MulleObjCTimeFoundation</title>
<g id="a_node7"><a xlink:href="https://github.com/MulleFoundation/MulleObjCTimeFoundation" xlink:title="MulleObjCTimeFoundation">
<polygon fill="lightgrey" stroke="black" points="469.5,-108 261.5,-108 261.5,-72 469.5,-72 469.5,-108"/>
<text text-anchor="middle" x="365.5" y="-86.3" font-family="Times,serif" font-size="14.00">MulleObjCTimeFoundation</text>
</a>
</g>
</g>
<!-- MulleObjCStandardFoundation&#45;&gt;MulleObjCTimeFoundation -->
<g id="edge3" class="edge">
<title>MulleObjCStandardFoundation&#45;&gt;MulleObjCTimeFoundation</title>
<path fill="none" stroke="black" d="M365.5,-143.7C365.5,-135.98 365.5,-126.71 365.5,-118.11"/>
<polygon fill="black" stroke="black" points="369,-118.1 365.5,-108.1 362,-118.1 369,-118.1"/>
</g>
<!-- MulleObjCValueFoundation -->
<g id="node8" class="node">
<title>MulleObjCValueFoundation</title>
<g id="a_node8"><a xlink:href="https://github.com/MulleFoundation/MulleObjCValueFoundation" xlink:title="MulleObjCValueFoundation">
<polygon fill="lightgrey" stroke="black" points="699.5,-108 487.5,-108 487.5,-72 699.5,-72 699.5,-108"/>
<text text-anchor="middle" x="593.5" y="-86.3" font-family="Times,serif" font-size="14.00">MulleObjCValueFoundation</text>
</a>
</g>
</g>
<!-- MulleObjCStandardFoundation&#45;&gt;MulleObjCValueFoundation -->
<g id="edge4" class="edge">
<title>MulleObjCStandardFoundation&#45;&gt;MulleObjCValueFoundation</title>
<path fill="none" stroke="black" d="M420.98,-143.97C453.26,-134.06 494.11,-121.51 527.96,-111.12"/>
<polygon fill="black" stroke="black" points="529.24,-114.39 537.77,-108.11 527.18,-107.7 529.24,-114.39"/>
</g>
<!-- MulleObjCTimeFoundation&#45;&gt;MulleObjC -->
<g id="edge5" class="edge">
<title>MulleObjCTimeFoundation&#45;&gt;MulleObjC</title>
<path fill="none" stroke="black" d="M365.5,-71.7C365.5,-63.98 365.5,-54.71 365.5,-46.11"/>
<polygon fill="black" stroke="black" points="369,-46.1 365.5,-36.1 362,-46.1 369,-46.1"/>
</g>
<!-- MulleObjCValueFoundation&#45;&gt;mulle&#45;buffer -->
<g id="edge8" class="edge">
<title>MulleObjCValueFoundation&#45;&gt;mulle&#45;buffer</title>
<path fill="none" stroke="black" d="M579.66,-71.7C573.01,-63.39 564.92,-53.28 557.61,-44.14"/>
<polygon fill="black" stroke="black" points="560.16,-41.73 551.18,-36.1 554.7,-46.1 560.16,-41.73"/>
</g>
<!-- mulle&#45;utf -->
<g id="node10" class="node">
<title>mulle&#45;utf</title>
<g id="a_node10"><a xlink:href="https://github.com/mulle-c/mulle-utf" xlink:title="mulle&#45;utf">
<polygon fill="lightgrey" stroke="black" points="689,-36 608,-36 608,0 689,0 689,-36"/>
<text text-anchor="middle" x="648.5" y="-14.3" font-family="Times,serif" font-size="14.00">mulle&#45;utf</text>
</a>
</g>
</g>
<!-- MulleObjCValueFoundation&#45;&gt;mulle&#45;utf -->
<g id="edge9" class="edge">
<title>MulleObjCValueFoundation&#45;&gt;mulle&#45;utf</title>
<path fill="none" stroke="black" d="M607.1,-71.7C613.62,-63.39 621.57,-53.28 628.75,-44.14"/>
<polygon fill="black" stroke="black" points="631.63,-46.13 635.06,-36.1 626.13,-41.81 631.63,-46.13"/>
</g>
</g>
</svg>
